<svg width="256" height="256" viewBox="0 0 256 256" fill="none" xmlns="http://www.w3.org/2000/svg">
<rect width="256" height="256" rx="60" fill="#242938"/>
<path fill-rule="evenodd" clip-rule="evenodd" d="M179.179 26.0205C179.482 25.2867 180.042 24.6883 180.753 24.3371C181.465 23.9859 182.28 23.9059 183.047 24.1121L196.401 27.7589C197.166 27.9702 197.828 28.4529 198.263 29.1168C198.698 29.7807 198.877 30.5804 198.766 31.3665L197.107 43.039C204.306 47.1825 210.108 53.1559 214.08 60.162L225.775 58.5935C226.566 58.4881 227.368 58.6758 228.03 59.1213C228.692 59.5667 229.168 60.2391 229.368 61.0116L232.896 74.3963C233.095 75.1676 233.006 75.9851 232.645 76.6952C232.284 77.4052 231.676 77.959 230.936 78.2523L220.012 82.6441C220.02 90.8313 217.831 98.8706 213.675 105.924L220.862 115.269C221.347 115.9 221.586 116.686 221.533 117.48C221.48 118.275 221.139 119.022 220.574 119.583L210.761 129.321C210.197 129.882 209.448 130.218 208.655 130.266C207.861 130.314 207.077 130.071 206.449 129.582L197.159 122.289C190.079 126.387 182.028 128.509 173.848 128.432L169.353 139.346C169.05 140.08 168.491 140.678 167.779 141.03C167.067 141.381 166.252 141.461 165.485 141.255L152.131 137.621C151.361 137.412 150.694 136.928 150.256 136.261C149.818 135.594 149.639 134.79 149.753 134L151.426 122.328C144.337 118.243 138.475 112.33 134.452 105.205L122.758 106.773C121.967 106.879 121.165 106.691 120.503 106.245C119.841 105.8 119.365 105.128 119.164 104.355L115.636 90.9704C115.437 90.1991 115.526 89.3816 115.887 88.6715C116.248 87.9614 116.856 87.4077 117.596 87.1144L128.52 82.7226C128.514 74.5356 130.703 66.4968 134.857 59.4431L127.671 50.0973C127.185 49.4667 126.946 48.6804 126.999 47.8862C127.052 47.092 127.393 46.3445 127.958 45.7839L137.771 36.046C138.335 35.4848 139.084 35.1486 139.878 35.1005C140.672 35.0523 141.456 35.2956 142.083 35.7845L151.373 43.0782C158.454 38.9794 166.504 36.8577 174.684 36.9348L179.179 26.0205ZM199.485 89.5456C198.584 92.8585 197.04 95.9614 194.94 98.6772C192.84 101.393 190.226 103.669 187.248 105.374C184.269 107.079 180.983 108.181 177.579 108.616C174.175 109.051 170.718 108.812 167.406 107.91C164.094 107.009 160.993 105.464 158.278 103.364C155.563 101.264 153.288 98.649 151.583 95.6692C148.14 89.6513 147.228 82.5117 149.048 75.8211C150.867 69.1304 155.269 63.4368 161.285 59.9928C167.301 56.5487 174.438 55.6363 181.126 57.4563C187.814 59.2763 193.506 63.6796 196.949 69.6975C200.392 75.7154 201.304 82.855 199.485 89.5456ZM99.4859 105.165C99.3904 104.375 99.0098 103.647 98.4155 103.117C97.8212 102.588 97.0542 102.294 96.2584 102.29H82.4209C81.6248 102.29 80.8562 102.581 80.2595 103.108C79.6628 103.635 79.279 104.362 79.1803 105.152L77.743 116.655C71.9816 117.958 66.4846 120.235 61.4881 123.386L52.3415 116.276C51.7141 115.787 50.93 115.544 50.1361 115.592C49.3423 115.64 48.5933 115.976 48.0295 116.537L38.2426 126.327C37.6816 126.891 37.3455 127.641 37.2974 128.435C37.2493 129.229 37.4925 130.013 37.9813 130.641L45.0895 139.791C41.9389 144.789 39.6632 150.288 38.3602 156.051L26.8616 157.489C26.0739 157.587 25.349 157.969 24.8224 158.563C24.2957 159.158 24.0034 159.923 24 160.717V174.546C24.0002 175.343 24.2911 176.112 24.8181 176.709C25.345 177.305 26.0717 177.689 26.8616 177.788L38.3602 179.226C39.6799 185.082 41.9927 190.558 45.0895 195.486L37.9813 204.636C37.4925 205.263 37.2493 206.048 37.2974 206.842C37.3455 207.636 37.6816 208.385 38.2426 208.949L48.0295 218.74C48.5933 219.301 49.3423 219.637 50.1361 219.685C50.93 219.733 51.7141 219.49 52.3415 219.001L61.4881 211.89C66.4142 214.988 71.8892 217.302 77.743 218.622L79.1803 230.124C79.2758 230.915 79.6564 231.643 80.2507 232.172C80.845 232.702 81.612 232.996 82.4078 233H96.2323C97.0283 233 97.7969 232.709 98.3936 232.182C98.9903 231.655 99.3741 230.928 99.4728 230.137L100.91 218.635C106.672 217.332 112.169 215.056 117.165 211.903L126.312 219.014C126.939 219.503 127.723 219.746 128.517 219.698C129.311 219.65 130.06 219.314 130.624 218.753L140.411 208.962C140.972 208.398 141.308 207.649 141.356 206.855C141.404 206.061 141.161 205.277 140.672 204.649L133.564 195.499C136.66 190.571 138.973 185.095 140.293 179.239L151.792 177.801C152.582 177.706 153.31 177.325 153.839 176.73C154.368 176.136 154.662 175.369 154.666 174.573V160.743C154.666 159.947 154.375 159.178 153.848 158.581C153.321 157.984 152.595 157.601 151.805 157.502L140.306 156.064C139.003 150.301 136.727 144.802 133.577 139.804L140.685 130.654C141.174 130.026 141.417 129.242 141.369 128.448C141.321 127.654 140.985 126.904 140.424 126.341L130.624 116.537C130.06 115.976 129.311 115.64 128.517 115.592C127.723 115.544 126.939 115.787 126.312 116.276L117.165 123.386C112.172 120.241 106.679 117.969 100.923 116.668L99.4859 105.165ZM122 167.645C122 176.312 118.558 184.623 112.432 190.751C106.306 196.88 97.9968 200.322 89.3331 200.322C80.6694 200.322 72.3605 196.88 66.2344 190.751C60.1082 184.623 56.6665 176.312 56.6665 167.645C56.6665 158.978 60.1082 150.667 66.2344 144.538C72.3605 138.41 80.6694 134.967 89.3331 134.967C97.9968 134.967 106.306 138.41 112.432 144.538C118.558 150.667 122 158.978 122 167.645Z" fill="#F4F2ED"/>
</svg>
