<svg width="256" height="256" viewBox="0 0 256 256" fill="none" xmlns="http://www.w3.org/2000/svg">
<g clip-path="url(#clip0_217_25)">
<path d="M196 0H60C26.8629 0 0 26.8629 0 60V196C0 229.137 26.8629 256 60 256H196C229.137 256 256 229.137 256 196V60C256 26.8629 229.137 0 196 0Z" fill="#2396ED"/>
<path d="M141.187 122.123H161.904V103.379H141.187V122.123ZM116.525 122.123H137.241V103.379H116.525V122.123ZM92.355 122.123H113.072V103.379H92.355V122.123ZM68.185 122.123H88.41V103.379H68.186L68.185 122.123ZM43.523 122.123H64.24V103.379H43.523V122.123ZM68.186 99.433H88.409V80.69H68.186V99.433ZM92.356 99.433H113.072V80.69H92.355L92.356 99.433ZM116.525 99.433H137.241V80.69H116.525V99.433ZM116.525 76.743H137.241V58H116.525V76.743ZM228 113.739C228 113.739 219.121 105.353 200.871 108.313C198.898 94.008 183.607 85.623 183.607 85.623C183.607 85.623 169.303 102.887 179.661 122.124C176.702 123.604 171.769 125.577 164.37 125.577H28.726C26.259 134.949 26.259 197.098 94.328 197.098C143.16 197.098 179.661 174.409 196.925 132.975C222.574 134.948 228 113.739 228 113.739Z" fill="white"/>
</g>
<defs>
<clipPath id="clip0_217_25">
<rect width="256" height="256" fill="white"/>
</clipPath>
</defs>
</svg>
