<svg width="256" height="256" viewBox="0 0 256 256" fill="none" xmlns="http://www.w3.org/2000/svg">
<rect width="256" height="256" rx="60" fill="#242938"/>
<path d="M166.494 69.224L166.251 68.8445L166.25 68.846L166.241 68.852L166.202 68.876L166.047 68.972C165.107 69.5499 164.157 70.1105 163.196 70.6535C160.662 72.0847 158.069 73.4084 155.423 74.621C149.129 77.4995 141.168 80.3075 134.355 80.1575C130.914 80.081 128.055 79.7945 125.36 79.511L124.919 79.4645C122.39 79.1975 119.978 78.944 117.357 78.8885C111.797 78.7715 105.324 79.553 94.676 82.949C83.939 86.372 77.0615 93.3365 72.1115 99.971C70.19 102.546 68.5505 105.081 67.094 107.337C66.678 107.983 66.275 108.604 65.885 109.199C64.115 111.894 62.63 113.954 61.1705 115.013C58.0895 117.246 51.722 121.998 46.127 126.188C43.6887 128.014 41.2517 129.842 38.816 131.672L36.545 133.379L35.9225 133.849L35.7605 133.972L35.7185 134.003L35.708 134.011L35.705 134.012L35.4875 134.177L35.531 134.445L35.573 134.704L35.657 135.218L36.1535 135.061L51.8435 130.064C51.251 130.697 50.447 131.579 49.427 132.752C47.006 135.539 43.3685 139.967 38.4425 146.586L38.336 146.487L37.34 145.571L37.5905 146.9L37.6085 146.996L37.625 147.084L37.6745 147.16L37.676 147.163L37.6805 147.17L37.6985 147.199L37.7705 147.307C38.1928 147.919 38.634 148.518 39.0935 149.104C40.2286 150.557 41.4738 151.922 42.818 153.185C44.357 154.616 46.166 155.993 48.1175 156.864C50.072 157.737 52.193 158.115 54.3245 157.502C55.1045 157.274 55.967 156.917 56.8895 156.457C60.1145 158.228 64.298 159.955 68.9195 160.438L70.046 160.556L69.308 159.696L69.3065 159.695L69.3005 159.688L69.2735 159.658L69.1715 159.536C68.5768 158.824 67.9943 158.102 67.424 157.37C66.152 155.739 64.9508 154.053 63.824 152.318L65.0735 151.506L71.5055 153.871L72.1925 154.123L72.107 153.395L71.453 147.821L77.3525 149.988L78.059 150.248L77.9525 149.502L77.189 144.15C77.915 143.774 78.6375 143.42 79.3565 143.088L79.553 143L79.607 142.794L86.354 117.273L113.076 99.0455L111.389 103.29C108.576 110.205 104.537 114.47 101.21 117.003C99.8921 118.012 98.4789 118.89 96.9905 119.624C96.4731 119.876 95.9429 120.101 95.402 120.297L95.318 120.326L95.3105 120.329L95.2985 120.333L95.294 120.335L95.2805 120.339L95.267 120.344L90.8045 122.036L90.695 122.075L90.62 122.164L90.1025 122.771C88.7135 124.397 87.638 125.655 86.7995 127.854C85.868 130.296 85.2305 133.884 84.662 140.468L84.608 141.097L85.22 140.942C87.8495 140.282 90.323 140.133 92.5385 140.73C98.378 142.304 102.326 146.615 104.418 151.044C105.464 153.258 106.038 155.486 106.157 157.391C106.277 159.314 105.929 160.831 105.224 161.702C104.46 162.646 102.624 164.283 100.247 166.254H95.0975L95.09 166.697L95.027 170.428L95.024 170.431L94.817 170.591H89.5775L89.57 171.034L89.513 174.667L88.889 175.136L88.511 175.421C86.33 175.424 83.8385 174.494 81.8405 173.519C80.7329 172.977 79.658 172.37 78.6215 171.703L78.431 171.577L78.383 171.543L78.374 171.538L78.3725 171.536L78.3695 171.535L77.6645 171.05V171.907C77.6645 173.849 78.4655 176.264 79.2365 178.152C79.6691 179.201 80.1439 180.232 80.66 181.243L80.663 181.247L80.4785 181.379L80.8715 181.642L80.999 181.877L81.1325 181.814L81.1685 181.838L81.584 182.101C83.7313 183.426 85.9797 184.58 88.3085 185.552C90.3755 186.405 92.705 187.169 95.024 187.523C97.34 187.877 99.677 187.825 101.738 187.016C103.526 186.316 105.995 184.89 108.909 183.068C110.913 181.815 113.144 180.362 115.529 178.81C116.623 178.096 117.746 177.366 118.898 176.621C126.225 171.883 134.595 166.664 142.343 163.31L189.483 150.892L189.705 150.833L189.788 150.619L196.008 134.502L196.325 133.682L195.474 133.907L160.088 143.229V129.68L201.935 118.655L202.157 118.596L202.239 118.382L208.46 102.266L208.776 101.445L207.926 101.67L160.1 114.272V100.724L214.374 86.423L214.596 86.3645L214.679 86.15L220.473 71.144L220.526 71.006L220.487 70.8635L220.235 69.9335L220.118 69.503L219.686 69.617L163.506 84.419C166.101 80.324 166.998 76.643 167.226 73.9115C167.349 72.4385 167.276 71.2445 167.171 70.4135C167.119 70.003 167.045 69.5954 166.95 69.1925L166.932 69.1235L166.926 69.104L166.925 69.098L166.494 69.224ZM166.494 69.224L166.251 68.8445L166.755 68.5235L166.925 69.098L166.494 69.224ZM166.062 69.3515C166.062 69.3495 166.062 69.3495 166.062 69.3515ZM128.985 117.042L139.511 114.267L136.163 122.942L125.637 125.717L128.985 117.042ZM135.521 126.971L132.173 135.651L121.647 138.428L124.997 129.746L135.521 126.971ZM150.636 123.727L147.288 132.407L136.763 135.184L140.112 126.501L150.636 123.727Z" fill="white"/>
<path d="M97.6175 188.179C96.7264 188.173 95.837 188.102 94.9565 187.966C92.8775 187.649 90.5825 186.976 88.1375 185.966C85.7856 184.984 83.5146 183.818 81.3455 182.48L81.0995 182.326L80.8055 182.465L80.5295 181.952L79.6865 181.391L80.087 181.106L79.904 180.737C79.6355 180.187 79.229 179.321 78.8225 178.324C77.7575 175.717 77.2175 173.557 77.2175 171.908V170.195L78.6845 171.205L78.8705 171.328C79.8921 171.985 80.9509 172.582 82.0415 173.117C83.741 173.947 86.201 174.932 88.3655 174.973L88.4795 174.887L88.622 174.779L89.0705 174.443L89.138 170.144H94.5845L94.6565 165.808H100.088C102.599 163.723 104.21 162.247 104.877 161.422C105.516 160.631 105.819 159.172 105.711 157.421C105.591 155.498 104.99 153.302 104.015 151.24C102.937 148.946 101.432 146.88 99.581 145.15C97.5565 143.257 95.0987 141.889 92.423 141.167C90.3965 140.621 88.0775 140.692 85.331 141.38L84.107 141.689L84.2165 140.431C84.7775 133.949 85.4045 130.259 86.3825 127.696C87.248 125.425 88.358 124.126 89.7635 122.48L89.897 122.323L90.278 121.874L90.4295 121.696L90.6455 121.613L95.1365 119.911L95.183 119.896L95.2565 119.872C95.7802 119.68 96.2939 119.461 96.7955 119.218C98.2584 118.499 99.6462 117.637 100.938 116.644C102.881 115.157 104.629 113.432 106.142 111.511C108.065 109.079 109.68 106.285 110.942 103.202V103.192L110.978 103.114L112.118 100.246L86.7455 117.551L80.042 142.91L79.934 143.321L79.547 143.498C78.9515 143.773 78.3395 144.07 77.6825 144.404L78.6155 150.929L71.9885 148.495L72.728 154.795L65.132 152.003L64.448 152.447C65.4958 154.039 66.6077 155.588 67.781 157.09C68.363 157.838 68.837 158.422 69.1325 158.779L69.518 159.242L69.6275 159.371L69.638 159.385L69.758 159.502V159.526L71.1275 161.119L68.8745 160.882C64.961 160.472 60.9275 159.152 56.8805 156.959C56.1118 157.344 55.3125 157.664 54.491 157.918L54.4505 157.93L54.4355 157.934L54.3905 157.948C52.373 158.512 50.2025 158.285 47.9345 157.273C46.172 156.485 44.348 155.221 42.512 153.512C40.7236 151.826 39.1053 149.968 37.6805 147.965L37.55 147.779L37.541 147.785L37.3025 147.419L37.2245 147.316V147.299L37.196 147.257L37.1465 146.986L36.65 144.323L38.3825 145.916C43.343 139.27 46.9355 134.936 49.0895 132.457C49.5335 131.946 49.961 131.462 50.372 131.005L36.29 135.488L35.2955 135.803L35 133.981L35.6525 133.49L35.942 133.273L37.127 132.382L38.549 131.314C40.2665 130.024 42.929 128.026 45.86 125.83C50.9585 122.011 57.7085 116.972 60.9095 114.65C62.2775 113.659 63.7385 111.656 65.5115 108.955C65.9 108.362 66.3035 107.738 66.719 107.096C68.174 104.845 69.8225 102.295 71.753 99.7055C74.7095 95.7425 77.7155 92.5385 80.942 89.909C84.9709 86.614 89.585 84.1082 94.5425 82.523C103.946 79.523 110.772 78.3035 117.369 78.4415C120.009 78.497 122.419 78.7505 124.969 79.0205L125.409 79.067C128.345 79.376 131.045 79.637 134.368 79.7105C137.434 79.778 140.999 79.235 144.962 78.095C148.16 77.1755 151.617 75.869 155.238 74.2145C157.871 73.0054 160.453 71.6877 162.977 70.265C163.97 69.7051 164.951 69.1249 165.92 68.525L166.028 68.456L167.018 67.8245L167.484 69.4025L167.462 69.4085C167.505 69.6185 167.566 69.9425 167.618 70.3595C167.761 71.489 167.78 72.698 167.675 73.9505C167.402 77.237 166.325 80.5115 164.47 83.702L220.436 68.957L221 71.03L220.895 71.3045L214.936 86.741L214.49 86.858L160.55 101.071V113.689L209.513 100.786L208.88 102.428L202.495 118.973L202.049 119.09L160.537 130.028V142.64L195.359 133.468L197.062 133.019L196.429 134.662L190.043 151.208L189.598 151.325L142.492 163.735C134.917 167.018 126.794 172.049 119.144 176.998C118.046 177.707 116.969 178.409 115.927 179.089L115.74 179.21C113.378 180.748 111.146 182.201 109.149 183.449C105.756 185.572 103.522 186.8 101.903 187.435C100.637 187.93 99.203 188.179 97.6175 188.179ZM81.416 181.46L81.8225 181.717C83.9497 183.027 86.176 184.17 88.481 185.134C90.86 186.116 93.083 186.77 95.0915 187.076C97.6025 187.459 99.7835 187.297 101.573 186.595C103.137 185.981 105.326 184.775 108.671 182.684C110.661 181.439 112.889 179.989 115.249 178.453L115.435 178.331C116.507 177.632 117.58 176.934 118.655 176.239C126.349 171.263 134.522 166.202 142.166 162.892L142.197 162.878L142.23 162.869L189.371 150.451L195.59 134.335L159.64 143.806V129.332L201.822 118.219L208.043 102.103L159.65 114.856V100.376L214.261 85.9865L220.055 70.9805L219.803 70.052L162.515 85.145L163.128 84.1775C165.263 80.81 166.491 77.3435 166.779 73.874C166.902 72.3905 166.819 71.204 166.726 70.4705C166.691 70.2001 166.648 69.931 166.595 69.6635L166.295 69.752L166.112 69.467L166.109 69.4625L166.044 69.503L165.994 69.797L165.732 69.758L165.713 69.7055L165.679 69.7265C164.972 70.154 164.212 70.598 163.417 71.0465C160.871 72.4831 158.267 73.8127 155.61 75.032C151.949 76.706 148.45 78.0275 145.208 78.959C141.158 80.123 137.503 80.678 134.345 80.609C130.988 80.5355 128.268 80.2715 125.313 79.961L124.873 79.9145C122.342 79.6475 119.951 79.3955 117.348 79.3415C110.856 79.205 104.117 80.4125 94.814 83.381C89.912 84.944 85.559 87.308 81.509 90.608C78.341 93.1895 75.3845 96.341 72.473 100.244C70.559 102.809 68.9195 105.346 67.4735 107.585C67.058 108.227 66.653 108.854 66.263 109.448C64.3835 112.312 62.9195 114.304 61.436 115.379C58.2395 117.697 51.494 122.734 46.3985 126.55C43.9606 128.376 41.5241 130.204 39.089 132.034L37.6685 133.102L36.4835 133.993L36.1955 134.209L35.9825 134.368L35.9735 134.356L36.0185 134.632L53.354 129.112L52.172 130.372C51.3541 131.249 50.5525 132.141 49.7675 133.048C47.579 135.566 43.901 140.005 38.804 146.855L38.507 147.254L38.2325 147.004V147.185L38.4155 147.446C38.7335 147.895 39.078 148.355 39.449 148.826C40.259 149.858 41.555 151.394 43.1255 152.857C44.8895 154.498 46.631 155.708 48.302 156.455C50.3765 157.382 52.3475 157.592 54.1625 157.082L54.2195 157.054H54.2615C55.0973 156.789 55.9097 156.456 56.69 156.056L56.9 155.951L57.107 156.065C61.079 158.246 65.033 159.565 68.8595 159.982V159.865L68.828 159.827C68.2282 159.111 67.6421 158.384 67.07 157.646C65.7875 156.005 64.5783 154.309 63.446 152.561L63.203 152.185L63.5795 151.942L64.8275 151.13L65.0165 151.007L71.6615 153.449L70.922 147.148L77.5085 149.567L76.6985 143.899L76.9835 143.752C77.7605 143.351 78.476 143.002 79.169 142.681L85.958 116.998L114.033 97.847L111.834 103.378V103.391L111.797 103.471C110.5 106.66 108.832 109.555 106.84 112.072C105.281 114.054 103.479 115.832 101.476 117.364C100.135 118.393 98.6963 119.286 97.1795 120.031C96.6458 120.289 96.0996 120.521 95.543 120.725L95.4515 120.757L95.42 120.767L90.959 122.459L90.5765 122.909L90.4415 123.067C89.039 124.708 88.0265 125.893 87.2165 128.018C86.2715 130.499 85.6595 134.119 85.106 140.51C88.004 139.783 90.473 139.714 92.651 140.3C95.4671 141.06 98.054 142.498 100.186 144.49C102.121 146.298 103.695 148.458 104.822 150.856C105.845 153.02 106.477 155.332 106.603 157.366C106.727 159.367 106.361 161.009 105.571 161.987C104.845 162.886 103.196 164.395 100.531 166.604L100.406 166.708H95.54L95.474 170.627L95.2895 170.804L95.2685 170.815L95.2385 170.837L95.0975 170.947L94.9745 171.043H90.0215L89.9615 174.895L89.7875 175.027C89.5775 175.187 89.3685 175.344 89.1605 175.498L89.018 175.606L88.784 175.781L88.664 175.873H88.5035C87.1925 175.873 84.9425 175.534 81.6455 173.924C80.5208 173.375 79.4299 172.759 78.3785 172.081L78.182 171.95L78.116 171.907C78.116 173.417 78.6485 175.519 79.655 177.982C80.0707 178.998 80.5291 179.996 81.029 180.974L81.038 180.983L81.0695 181.054L81.203 181.319L81.2165 181.328L81.221 181.337L81.3725 181.432L81.416 181.46ZM120.911 139.087L124.659 129.37L136.257 126.313L132.511 136.028L120.911 139.087ZM125.333 130.123L122.384 137.768L131.837 135.275L134.786 127.631L125.333 130.123ZM136.025 135.842L139.773 126.125L151.372 123.067L147.625 132.782L136.025 135.842ZM140.449 126.878L137.5 134.524L146.953 132.031L149.901 124.387L140.449 126.878ZM124.899 126.377L128.648 116.666L140.246 113.608L136.498 123.317L124.899 126.377ZM129.321 117.419L126.373 125.057L135.826 122.564L138.773 114.926L129.321 117.419Z" fill="white"/>
</svg>
