<svg width="256" height="256" viewBox="0 0 256 256" fill="none" xmlns="http://www.w3.org/2000/svg">
<g clip-path="url(#clip0_3_20)">
<path d="M196 0H60C26.8629 0 0 26.8629 0 60V196C0 229.137 26.8629 256 60 256H196C229.137 256 256 229.137 256 196V60C256 26.8629 229.137 0 196 0Z" fill="white"/>
<path d="M219.684 83.0708L225.844 67.1191L225.575 66.1312L164.639 82.1855C171.136 72.7877 168.905 65.2506 168.905 65.2506C168.905 65.2506 149.445 77.6768 134.729 77.3517C120.013 77.0266 115.269 73.0986 92.7052 80.298C70.1412 87.4895 63.764 109.571 57.2227 114.315C50.6813 119.058 30.1562 134.507 30.1562 134.507L30.2004 134.781L48.704 128.89C48.704 128.89 43.6287 133.672 32.847 148.203L32.3435 147.738L32.3625 147.84C32.3625 147.84 41.028 161.084 49.5325 158.635C50.3862 158.385 51.3489 157.978 52.4015 157.442C55.826 159.348 60.2953 161.223 65.2301 161.739C65.2301 161.739 61.8892 157.855 59.1022 153.438C59.855 152.953 60.6267 152.45 61.411 151.94L61.048 152.196L68.0944 154.784L67.3164 148.159C67.3416 148.146 67.3605 148.127 67.3858 148.115L74.3106 150.659L73.4505 144.633C74.3153 144.18 75.1914 143.748 76.0781 143.339L83.2965 116.038L113.144 95.6784L110.768 101.645C104.718 116.527 93.3554 120.04 93.3554 120.04L88.6116 121.837C85.086 126.007 83.5995 127.034 82.389 141.029C85.2328 140.314 87.9488 140.142 90.4106 140.806C103.163 144.244 107.581 159.61 104.145 163.863C103.285 164.928 101.238 166.745 98.6548 168.881H93.4769L93.4075 173.078C93.2292 173.218 93.0508 173.352 92.8788 173.493H87.6126L87.5495 177.586C87.084 177.943 86.6184 178.287 86.1718 178.626C81.2244 178.729 74.9561 174.411 74.9561 174.411C74.9561 178.339 78.2275 184.383 78.2275 184.383C78.2275 184.383 78.4437 184.281 78.8083 184.102C78.4895 184.338 78.3112 184.465 78.3112 184.465C78.3112 184.465 91.5548 193.297 99.8936 190.025C107.309 187.118 126.507 171.981 143.079 164.815L193.227 151.604L199.839 134.472L161.622 144.54V129.155L206.464 117.34L213.077 100.208L161.635 113.764V98.3723L219.684 83.0708ZM128.672 115.684L140.57 112.547L140.729 113.14L137.019 122.756L124.688 126.008L128.672 115.684ZM132.779 136.266L120.447 139.519L124.432 129.19L136.329 126.053L136.489 126.646L132.779 136.266ZM148.847 132.816L136.516 136.069L140.5 125.74L152.398 122.603L152.557 123.196L148.847 132.816Z" fill="black"/>
</g>
<defs>
<clipPath id="clip0_3_20">
<rect width="256" height="256" fill="white"/>
</clipPath>
</defs>
</svg>
