<svg width="256" height="256" viewBox="0 0 256 256" fill="none" xmlns="http://www.w3.org/2000/svg">
<g clip-path="url(#clip0_211_55)">
<path d="M196 0H60C26.8629 0 0 26.8629 0 60V196C0 229.137 26.8629 256 60 256H196C229.137 256 256 229.137 256 196V60C256 26.8629 229.137 0 196 0Z" fill="#242938"/>
<path d="M128.001 30C72.779 30 28 74.77 28 130.001C28 174.184 56.653 211.668 96.387 224.891C101.384 225.817 103.219 222.722 103.219 220.081C103.219 217.696 103.126 209.819 103.083 201.463C75.263 207.512 69.393 189.664 69.393 189.664C64.843 178.105 58.289 175.032 58.289 175.032C49.216 168.825 58.973 168.953 58.973 168.953C69.015 169.658 74.303 179.258 74.303 179.258C83.222 194.546 97.697 190.126 103.403 187.571C104.301 181.107 106.892 176.696 109.752 174.199C87.541 171.67 64.192 163.095 64.192 124.778C64.192 113.86 68.098 104.939 74.495 97.936C73.456 95.417 70.033 85.246 75.463 71.472C75.463 71.472 83.861 68.785 102.971 81.722C110.948 79.507 119.502 78.396 128.001 78.358C136.499 78.396 145.061 79.507 153.052 81.723C172.139 68.784 180.525 71.473 180.525 71.473C185.968 85.246 182.544 95.418 181.505 97.936C187.917 104.939 191.797 113.86 191.797 124.778C191.797 163.187 168.403 171.644 146.135 174.119C149.722 177.223 152.918 183.308 152.918 192.638C152.918 206.018 152.802 216.787 152.802 220.081C152.802 222.742 154.602 225.86 159.671 224.878C199.383 211.64 228 174.169 228 130.001C228 74.771 183.227 30 128.001 30ZM65.454 172.453C65.234 172.95 64.452 173.099 63.74 172.758C63.014 172.432 62.607 171.754 62.842 171.256C63.057 170.744 63.841 170.602 64.564 170.945C65.291 171.271 65.705 171.955 65.454 172.453ZM70.373 176.842C69.896 177.285 68.963 177.079 68.331 176.38C67.677 175.683 67.554 174.751 68.038 174.302C68.529 173.86 69.434 174.067 70.089 174.764C70.743 175.47 70.871 176.395 70.373 176.842ZM73.747 182.458C73.134 182.884 72.132 182.485 71.513 181.595C70.9 180.706 70.9 179.64 71.526 179.212C72.147 178.785 73.134 179.169 73.762 180.052C74.373 180.956 74.373 182.023 73.747 182.458ZM79.454 188.962C78.906 189.566 77.739 189.404 76.884 188.579C76.01 187.773 75.766 186.629 76.316 186.024C76.871 185.418 78.045 185.589 78.906 186.407C79.774 187.211 80.039 188.364 79.454 188.962ZM86.83 191.157C86.588 191.941 85.464 192.297 84.331 191.964C83.201 191.621 82.46 190.704 82.689 189.912C82.924 189.124 84.053 188.753 85.194 189.109C86.324 189.45 87.065 190.361 86.83 191.157ZM95.224 192.089C95.252 192.913 94.292 193.597 93.103 193.612C91.907 193.639 90.94 192.971 90.927 192.16C90.927 191.327 91.866 190.65 93.061 190.63C94.251 190.607 95.224 191.269 95.224 192.089ZM103.47 191.773C103.613 192.577 102.787 193.404 101.606 193.624C100.445 193.836 99.37 193.339 99.223 192.541C99.079 191.716 99.92 190.89 101.079 190.676C102.262 190.471 103.32 190.955 103.47 191.773Z" fill="white"/>
</g>
<defs>
<clipPath id="clip0_211_55">
<rect width="256" height="256" fill="white"/>
</clipPath>
</defs>
</svg>
