<svg width="256" height="256" viewBox="0 0 256 256" fill="none" xmlns="http://www.w3.org/2000/svg">
<g clip-path="url(#clip0_3_8)">
<path d="M196 0H60C26.8629 0 0 26.8629 0 60V196C0 229.137 26.8629 256 60 256H196C229.137 256 256 229.137 256 196V60C256 26.8629 229.137 0 196 0Z" fill="#023430"/>
<path d="M171.173 107.591C160.636 61.11 138.676 48.736 133.074 39.989C130.764 36.1357 128.717 32.1302 126.949 28C126.653 32.13 126.109 34.73 122.599 37.862C115.552 44.145 85.622 68.535 83.103 121.348C80.756 170.59 119.303 200.953 124.395 204.092C128.311 206.019 133.08 204.133 135.407 202.364C153.988 189.612 179.376 155.614 171.193 107.591" fill="#10AA50"/>
<path d="M128.545 177.871C127.575 190.059 126.88 197.141 124.416 204.106C124.416 204.106 126.033 215.709 127.169 228H131.188C132.147 219.345 133.611 210.753 135.572 202.268C130.369 199.708 128.745 188.566 128.545 177.871Z" fill="#B8C4C2"/>
<path d="M135.565 202.275C130.307 199.846 128.786 188.469 128.552 177.871C129.852 160.388 130.231 142.849 129.688 125.326C129.412 116.132 129.818 40.168 127.423 29.046C129.062 32.8129 130.949 36.4663 133.074 39.982C138.676 48.736 160.643 61.11 171.173 107.591C179.376 155.532 154.126 189.44 135.565 202.275Z" fill="#12924F"/>
</g>
<defs>
<clipPath id="clip0_3_8">
<rect width="256" height="256" fill="white"/>
</clipPath>
</defs>
</svg>
