<svg width="256" height="256" viewBox="0 0 256 256" fill="none" xmlns="http://www.w3.org/2000/svg">
<g clip-path="url(#clip0_211_43)">
<path d="M196 0H60C26.8629 0 0 26.8629 0 60V196C0 229.137 26.8629 256 60 256H196C229.137 256 256 229.137 256 196V60C256 26.8629 229.137 0 196 0Z" fill="#242938"/>
<mask id="mask0_211_43" style="mask-type:luminance" maskUnits="userSpaceOnUse" x="38" y="38" width="180" height="180">
<path d="M38 38H218V218H38V38Z" fill="white"/>
</mask>
<g mask="url(#mask0_211_43)">
<path fill-rule="evenodd" clip-rule="evenodd" d="M203.801 178.21C194.011 177.938 186.416 178.941 180.051 181.619C178.218 182.355 175.277 182.355 175.035 184.662C176.015 185.63 176.133 187.214 176.992 188.556C178.459 190.991 181.033 194.271 183.357 195.973L191.191 201.571C195.965 204.488 201.351 206.193 206.002 209.113C208.696 210.817 211.388 213.007 214.082 214.834C215.454 215.807 216.285 217.392 218 217.997V217.629C217.144 216.538 216.897 214.957 216.044 213.735L212.367 210.209C208.82 205.465 204.41 201.325 199.636 197.922C195.718 195.245 187.152 191.596 185.56 187.097L185.319 186.824C188.008 186.552 191.191 185.605 193.764 184.875C197.929 183.784 201.721 184.024 206.002 182.93L211.882 181.226V180.135C209.678 177.946 208.087 175.025 205.763 172.959C199.521 167.606 192.661 162.373 185.56 157.994C181.766 155.562 176.868 153.977 172.829 151.913C171.356 151.182 168.911 150.817 168.055 149.601C165.846 146.929 164.625 143.397 163.034 140.232L152.997 119.064C150.794 114.319 149.444 109.574 146.755 105.195C134.144 84.512 120.431 71.983 99.375 59.693C94.848 57.138 89.462 56.039 83.735 54.703L74.555 54.213C72.593 53.362 70.636 51.049 68.922 49.953C61.944 45.573 43.948 36.085 38.802 48.59C35.497 56.497 43.701 64.282 46.486 68.299C48.571 71.097 51.26 74.259 52.733 77.423C53.556 79.49 53.831 81.682 54.69 83.872C56.646 89.224 58.484 95.188 61.055 100.178C62.427 102.733 63.868 105.413 65.582 107.723C66.562 109.086 68.277 109.67 68.642 111.859C66.927 114.294 66.809 117.94 65.829 120.986C61.42 134.734 63.135 151.766 69.377 161.888C71.339 164.928 75.962 171.622 82.235 169.065C87.744 166.875 86.515 159.941 88.106 153.857C88.476 152.399 88.23 151.425 88.962 150.449V150.722L93.983 160.819C97.778 166.78 104.391 172.986 109.897 177.125C112.833 179.315 115.16 183.089 118.831 184.425V184.057H118.59C117.854 182.966 116.751 182.475 115.772 181.624C113.569 179.435 111.121 176.757 109.406 174.325C104.267 167.513 99.74 159.968 95.698 152.183C93.737 148.412 92.022 144.275 90.436 140.504C89.695 139.043 89.695 136.85 88.474 136.125C86.635 138.797 83.947 141.115 82.594 144.398C80.267 149.628 80.026 156.077 79.17 162.769C78.676 162.891 78.895 162.769 78.676 163.041C74.763 162.071 73.413 158.051 71.946 154.648C68.274 146.01 67.659 132.141 70.842 122.164C71.698 119.609 75.375 111.579 73.907 109.146C73.167 106.834 70.724 105.498 69.374 103.671C67.783 101.359 66.074 98.441 64.971 95.886C62.035 89.069 60.567 81.529 57.381 74.716C55.908 71.552 53.34 68.266 51.257 65.349C48.93 62.063 46.365 59.75 44.527 55.859C43.915 54.496 43.059 52.331 44.038 50.869C44.28 49.896 44.773 49.506 45.748 49.288C47.338 47.924 51.872 49.653 53.463 50.378C57.99 52.205 61.785 53.907 65.58 56.459C67.295 57.675 69.133 59.988 71.336 60.599H73.91C77.828 61.449 82.232 60.871 85.9 61.962C92.39 64.034 98.264 67.072 103.532 70.36C119.567 80.458 132.792 94.814 141.725 111.971C143.193 114.769 143.805 117.324 145.155 120.244C147.729 126.208 150.912 132.289 153.477 138.132C156.051 143.85 158.498 149.694 162.17 154.438C164.008 156.993 171.35 158.329 174.654 159.668C177.104 160.759 180.896 161.741 183.105 163.077C187.264 165.632 191.427 168.552 195.342 171.35C197.298 172.806 203.423 175.849 203.787 178.276L203.801 178.21ZM78.958 72.487C77.2671 72.4722 75.5814 72.6765 73.943 73.095V73.368H74.184C75.164 75.315 76.879 76.654 78.102 78.358L80.92 84.198L81.162 83.926C82.876 82.71 83.735 80.763 83.735 77.846C83 76.995 82.879 76.141 82.267 75.29C81.532 74.074 79.941 73.463 78.958 72.493V72.487Z" fill="white"/>
</g>
</g>
<defs>
<clipPath id="clip0_211_43">
<rect width="256" height="256" fill="white"/>
</clipPath>
</defs>
</svg>
