<svg width="256" height="256" viewBox="0 0 256 256" fill="none" xmlns="http://www.w3.org/2000/svg">
<g clip-path="url(#clip0_3_14)">
<path d="M196 0H60C26.8629 0 0 26.8629 0 60V196C0 229.137 26.8629 256 60 256H196C229.137 256 256 229.137 256 196V60C256 26.8629 229.137 0 196 0Z" fill="#677EEB"/>
<path fill-rule="evenodd" clip-rule="evenodd" d="M52.658 165.183C51.7183 163.701 51.2131 161.984 51.1999 160.229C51.1866 158.474 51.6658 156.75 52.583 155.254L123.045 40.32C126.964 33.927 136.427 34.486 139.566 41.295L203.935 180.926C206.323 186.107 203.574 192.203 198.109 193.843L97.979 223.882C96.0184 224.47 93.9193 224.401 92.0017 223.685C90.084 222.97 88.4529 221.647 87.357 219.918L52.658 165.183ZM131.173 73.926C131.852 70.544 136.485 70.056 137.853 73.223L182.254 175.963C182.451 176.419 182.55 176.912 182.543 177.409C182.536 177.906 182.423 178.396 182.213 178.847C182.003 179.297 181.7 179.698 181.324 180.023C180.947 180.348 180.506 180.589 180.03 180.731L110.848 201.383C108.305 202.142 105.869 199.92 106.392 197.318L118.782 135.622L131.173 73.926Z" fill="#F7FAFC"/>
</g>
<defs>
<clipPath id="clip0_3_14">
<rect width="256" height="256" fill="white"/>
</clipPath>
</defs>
</svg>
