<svg width="256" height="256" viewBox="0 0 256 256" fill="none" xmlns="http://www.w3.org/2000/svg">
<g clip-path="url(#clip0_214_21)">
<path d="M196 0H60C26.8629 0 0 26.8629 0 60V196C0 229.137 26.8629 256 60 256H196C229.137 256 256 229.137 256 196V60C256 26.8629 229.137 0 196 0Z" fill="#764ABC"/>
<path d="M166.579 165.599C173.96 164.835 179.559 158.472 179.304 150.837C179.05 143.202 172.687 137.094 165.052 137.094H164.543C156.653 137.348 150.545 143.965 150.799 151.855C151.054 155.673 152.581 158.981 154.871 161.272C146.218 178.324 132.984 190.795 113.132 201.23C99.643 208.356 85.645 210.901 71.647 209.12C60.194 207.593 51.287 202.502 45.687 194.104C37.543 181.633 36.78 168.144 43.651 154.655C48.487 144.983 56.122 137.857 60.958 134.294C59.94 130.986 58.413 125.386 57.649 121.314C20.746 148.038 24.563 184.178 35.761 201.23C44.161 213.955 61.212 221.845 80.046 221.845C85.136 221.845 90.226 221.336 95.316 220.063C127.894 213.701 152.581 194.358 166.579 165.599Z" fill="white"/>
<path d="M211.372 134.04C192.03 111.388 163.525 98.918 130.948 98.918H126.876C124.585 94.336 119.749 91.282 114.405 91.282H113.896C106.006 91.537 99.898 98.154 100.152 106.044C100.407 113.679 106.769 119.787 114.405 119.787H114.914C120.513 119.533 125.349 115.97 127.385 111.134H131.966C151.308 111.134 169.633 116.733 186.176 127.677C198.901 136.076 208.064 147.02 213.154 160.254C217.481 170.943 217.226 181.378 212.645 190.286C205.519 203.775 193.557 211.156 177.777 211.156C167.597 211.156 157.926 208.102 152.835 205.811C150.036 208.356 144.946 212.428 141.383 214.973C152.326 220.063 163.525 222.863 174.214 222.863C198.647 222.863 216.717 209.374 223.589 195.885C230.97 181.124 230.461 155.673 211.372 134.04Z" fill="white"/>
<path d="M82.082 169.926C82.337 177.561 88.699 183.669 96.335 183.669H96.844C104.733 183.414 110.842 176.797 110.587 168.907C110.333 161.272 103.97 155.164 96.335 155.164H95.825C95.317 155.164 94.553 155.164 94.045 155.419C83.609 138.112 79.283 119.278 80.81 98.918C81.828 83.648 86.918 70.413 95.826 59.468C103.206 50.052 117.459 45.471 127.13 45.216C154.108 44.707 165.561 78.302 166.324 91.792C169.633 92.555 175.232 94.336 179.05 95.609C175.996 54.38 150.545 33 126.112 33C103.206 33 82.082 49.543 73.683 73.976C61.976 106.553 69.611 137.857 83.863 162.545C82.591 164.326 81.827 167.126 82.082 169.926Z" fill="white"/>
</g>
<defs>
<clipPath id="clip0_214_21">
<rect width="256" height="256" fill="white"/>
</clipPath>
</defs>
</svg>
